<svg xmlns="http://www.w3.org/2000/svg" width="40" height="40" viewBox="0 0 40 40">
  <!-- Background circle -->
  <circle cx="20" cy="20" r="19" fill="#2E7D32"/>

  <!-- Class box (left) -->
  <rect x="6" y="12" width="12" height="16" rx="1.5"
        fill="none" stroke="white" stroke-width="2"/>
  <line x1="6" y1="17" x2="18" y2="17" stroke="white" stroke-width="1.5"/>

  <!-- Link arrow (middle) -->
  <line x1="18" y1="20" x2="26" y2="20" stroke="white" stroke-width="2" stroke-linecap="round"/>
  <polyline points="24,17 27,20 24,23" fill="none" stroke="white" stroke-width="2"
            stroke-linecap="round" stroke-linejoin="round"/>

  <!-- Flask/test tube (right) -->
  <path d="M28 11 L28 18 L25.5 24 Q24.5 26 26 26 L34 26 Q35.5 26 34.5 24 L32 18 L32 11 Z"
        fill="none" stroke="white" stroke-width="2" stroke-linejoin="round"/>
  <line x1="27" y1="11" x2="33" y2="11" stroke="white" stroke-width="2" stroke-linecap="round"/>

  <!-- Liquid fill -->
  <path d="M25.7 23 Q25 25 25.8 26 L34.2 26 Q35 25 34.3 23 Z" fill="white" opacity="0.55"/>

  <!-- Green check mark overlay -->
  <circle cx="31" cy="32" r="6" fill="#4CAF50" stroke="white" stroke-width="1.5"/>
  <polyline points="28,32 30,34 34,30" fill="none" stroke="white"
            stroke-width="2" stroke-linecap="round" stroke-linejoin="round"/>
</svg>
